<?xml version="1.0" standalone="no"?>
<!DOCTYPE svg PUBLIC "-//W3C//DTD SVG 20010904//EN"
 "http://www.w3.org/TR/2001/REC-SVG-20010904/DTD/svg10.dtd">
<svg version="1.0" xmlns="http://www.w3.org/2000/svg"
 width="740.000000pt" height="740.000000pt" viewBox="0 0 740.000000 740.000000"
 preserveAspectRatio="xMidYMid meet">

<g transform="translate(0.000000,740.000000) scale(0.100000,-0.100000)"
fill="#000000" stroke="none">
<path d="M3545 6318 c-11 -6 -37 -26 -58 -45 -20 -18 -46 -33 -58 -33 -40 0
-194 -181 -306 -361 -22 -36 -63 -95 -91 -131 -63 -84 -107 -176 -137 -292
-26 -95 -49 -303 -40 -352 5 -25 1 -32 -28 -51 -19 -12 -43 -40 -55 -65 -11
-24 -28 -51 -38 -58 -48 -41 -94 -159 -94 -245 0 -72 27 -140 78 -197 26 -29
55 -69 64 -90 27 -58 77 -89 152 -95 59 -5 65 -8 71 -32 14 -54 87 -190 136
-250 28 -35 49 -64 47 -65 -89 -65 -133 -120 -146 -181 -7 -35 -14 -41 -137
-107 -284 -152 -507 -304 -599 -410 -83 -94 -154 -270 -180 -443 -12 -86 -16
-95 -81 -190 -214 -319 -278 -612 -199 -924 80 -318 299 -505 558 -476 58 7
59 7 53 -16 -3 -13 -3 -29 1 -36 9 -14 2391 -29 2537 -16 l90 8 3 31 3 31 92
-1 c113 0 182 19 267 75 110 74 204 222 250 394 27 101 38 325 21 417 -31 163
-117 359 -230 527 -52 77 -60 94 -71 166 -17 110 -54 236 -97 325 -77 162
-319 352 -697 546 -112 57 -113 59 -125 103 -17 62 -54 110 -130 167 -12 9 -7
20 32 71 51 66 106 164 132 234 l17 46 59 6 c77 7 125 37 153 96 12 25 38 62
57 83 61 62 74 100 74 213 0 90 -3 105 -28 152 -15 29 -40 67 -56 85 -15 18
-36 48 -45 65 -9 18 -29 42 -45 54 -28 21 -28 21 -34 162 -11 305 -89 471
-333 712 -81 81 -166 128 -304 172 -130 40 -205 75 -274 128 -55 42 -78 42
-87 0 l-6 -30 -11 28 c-7 16 -12 32 -12 36 0 5 -7 15 -16 22 -14 11 -19 10
-35 -10 l-19 -23 0 30 c0 38 -18 54 -45 40z m-42 -121 c-17 -17 -35 -41 -41
-52 -9 -15 -11 -16 -12 -4 0 18 70 103 78 94 3 -3 -8 -20 -25 -38z m214 -125
c23 -17 60 -43 84 -58 28 -16 35 -23 19 -19 -52 14 -110 47 -137 79 -15 18
-38 45 -50 59 -13 15 -20 33 -17 42 5 11 14 4 34 -28 15 -24 45 -57 67 -75z
m184 19 c35 -15 88 -34 117 -41 29 -7 51 -14 49 -17 -10 -9 -148 32 -226 68
-91 42 -95 44 -86 29 3 -5 1 -10 -4 -10 -6 0 -11 13 -11 30 l0 30 49 -30 c26
-17 77 -43 112 -59z m-546 -22 c-24 -43 -33 -54 -29 -34 8 36 21 64 42 88 27
31 23 12 -13 -54z m-108 -125 c-13 -28 -23 -40 -25 -30 -3 14 33 76 44 76 2 0
-6 -21 -19 -46z m-127 -204 c-23 -38 -44 -70 -46 -70 -3 0 15 36 38 80 24 44
44 75 46 70 2 -5 -15 -41 -38 -80z m1052 -132 c34 -18 98 -67 142 -108 85 -80
133 -113 177 -124 33 -7 39 -29 37 -131 l-1 -80 -7 60 c-5 48 -7 53 -10 25 -3
-27 -5 -21 -9 25 -3 33 -3 62 2 63 4 2 7 7 7 12 0 4 -11 3 -26 -3 -23 -11 -25
-15 -20 -67 3 -30 15 -140 25 -245 11 -104 22 -233 26 -285 11 -173 -23 -394
-81 -527 -85 -195 -273 -320 -318 -211 -11 26 -11 41 0 87 27 110 37 213 25
258 -13 47 -49 95 -57 76 -4 -8 -25 -13 -52 -13 -26 -1 -74 -7 -107 -15 -33
-8 -66 -15 -74 -15 -27 0 37 39 83 51 83 21 110 88 60 148 -35 42 -64 43 -35
2 24 -33 27 -74 9 -88 -7 -6 -31 -14 -53 -18 -22 -4 -58 -18 -81 -31 -51 -30
-75 -30 -127 0 -23 14 -59 28 -80 31 -70 13 -85 52 -41 104 19 23 22 31 11 31
-26 0 -67 -58 -67 -94 0 -40 30 -70 85 -85 22 -6 54 -20 70 -31 25 -17 27 -20
10 -20 -11 0 -45 7 -75 15 -30 8 -79 15 -107 15 -29 0 -53 5 -53 10 0 25 -23
6 -40 -32 -25 -56 -25 -140 0 -246 25 -106 25 -130 -2 -159 -29 -31 -62 -29
-124 7 -192 109 -296 459 -255 855 6 61 18 178 26 260 8 83 17 166 19 185 3
19 2 27 0 17 -7 -24 -23 -12 -17 13 3 11 0 20 -6 20 -6 0 -8 -7 -4 -17 4 -10
2 -14 -4 -10 -7 5 -9 -1 -5 -15 3 -13 1 -19 -5 -15 -8 5 -11 -20 -12 -75 0
-44 -4 -84 -7 -87 -7 -7 0 226 7 234 3 2 14 6 25 8 49 7 136 70 191 137 36 44
65 70 78 70 11 1 44 9 73 19 53 18 53 18 118 -5 139 -51 321 -41 429 22 53 31
66 34 112 30 33 -3 75 -17 115 -38z m464 -410 c5 -82 4 -118 -4 -118 -6 0 -17
-3 -25 -6 -12 -4 -15 22 -19 163 -3 110 -1 175 5 188 10 17 13 10 24 -45 7
-36 16 -118 19 -182z m-1673 39 c-3 -89 -6 -163 -7 -164 -1 -1 -12 0 -24 4
-20 5 -22 11 -22 78 0 68 15 213 25 242 2 7 11 10 19 7 12 -4 13 -32 9 -167z
m1524 45 c1 -40 0 -42 -7 -17 -10 41 -12 65 -2 65 4 0 8 -21 9 -48z m-1430
-34 c-3 -8 -6 -5 -6 6 -1 11 2 17 5 13 3 -3 4 -12 1 -19z m1470 -135 c-3 -10
-5 -2 -5 17 0 19 2 27 5 18 2 -10 2 -26 0 -35z m-1574 -115 c25 -30 21 -38
-19 -38 -20 0 -33 -4 -29 -10 3 -5 12 -7 19 -4 8 3 17 0 21 -5 3 -6 11 -9 16
-6 5 4 9 2 9 -4 0 -5 -4 -13 -10 -16 -5 -3 -9 -21 -9 -38 l1 -32 8 30 c6 22 8
11 7 -40 0 -38 -2 -58 -4 -42 -2 15 -9 25 -14 22 -5 -4 -9 -2 -9 4 0 5 6 12
13 14 8 4 7 6 -3 6 -30 1 -41 -17 -47 -72 -6 -58 -18 -75 -26 -34 -4 19 -4 18
-6 -5 0 -16 -1 -31 -1 -35 0 -5 8 -8 18 -8 12 0 19 11 23 40 4 25 7 31 8 15 1
-14 5 -32 10 -39 8 -12 11 -8 16 15 12 53 13 50 14 -38 1 -82 0 -88 -19 -88
-17 0 -20 7 -20 45 0 57 -19 59 -22 3 l-1 -43 -5 45 c-3 35 -6 41 -12 25 -7
-17 -9 -17 -9 -2 -1 9 -5 17 -11 17 -14 0 -12 -12 6 -38 8 -12 11 -22 6 -22
-15 0 -40 34 -48 65 -4 17 -11 36 -17 43 -17 22 0 222 22 252 37 52 88 59 124
18z m1723 17 c23 -10 39 -26 49 -49 17 -41 20 -152 5 -192 -7 -18 -7 -29 -1
-34 16 -9 1 -49 -21 -56 -13 -4 -16 -9 -9 -17 11 -14 -9 -47 -30 -47 -8 0 -6
5 6 13 12 9 14 16 7 21 -13 8 -31 -23 -25 -41 3 -7 -2 -13 -11 -13 -9 0 -16 8
-16 20 0 11 -4 20 -10 20 -5 0 -10 -11 -10 -25 0 -14 -3 -25 -8 -25 -4 0 -5
37 -1 83 3 45 2 91 -3 102 -7 17 -8 17 -4 -5 2 -14 0 -47 -5 -75 -6 -35 -7
-17 -3 65 2 63 7 125 10 138 4 13 2 22 -4 22 -6 0 -13 -21 -15 -47 -3 -35 -4
-28 -4 22 -1 75 15 120 44 128 10 3 19 5 21 6 1 0 18 -6 38 -14z m-1944 -427
c-5 -5 -7 4 -4 21 2 16 -1 32 -7 36 -8 5 -10 -2 -6 -22 5 -28 5 -28 -6 -3 -14
32 -6 165 12 205 13 27 14 19 17 -100 1 -70 -1 -132 -6 -137z m2107 180 c6
-27 11 -58 11 -69 0 -22 -28 -69 -40 -69 -5 0 -8 50 -8 112 1 93 3 108 14 93
7 -9 18 -39 23 -67z m-1902 0 c-3 -8 -6 -5 -6 6 -1 11 2 17 5 13 3 -3 4 -12 1
-19z m1890 -170 c-3 -8 -6 -5 -6 6 -1 11 2 17 5 13 3 -3 4 -12 1 -19z m-20
-35 c-3 -10 -5 -2 -5 17 0 19 2 27 5 18 2 -10 2 -26 0 -35z m-1172 -219 c104
-21 178 -20 297 5 100 21 141 18 160 -12 22 -35 -12 -199 -63 -303 -45 -90
-93 -142 -163 -175 -74 -35 -109 -36 -178 -6 -105 47 -188 175 -229 355 -20
85 -21 98 -8 121 15 26 50 41 84 35 11 -2 56 -11 100 -20z m-308 -498 c134
-86 273 -126 440 -126 176 0 326 42 458 130 32 21 61 37 63 35 9 -9 2 -111
-10 -140 -6 -16 -24 -49 -40 -72 -24 -36 -37 -44 -105 -67 -119 -38 -195 -49
-353 -49 -158 -1 -257 13 -363 49 -84 28 -99 40 -137 117 -22 44 -30 74 -30
114 0 29 2 53 5 53 2 0 35 -20 72 -44z m1013 -158 c-13 -63 -57 -119 -142
-183 -55 -41 -218 -132 -218 -121 0 2 39 32 86 66 129 94 211 175 245 242 16
31 30 68 30 80 2 19 3 18 6 -5 3 -15 -1 -51 -7 -79z m-1130 66 c0 -23 39 -95
77 -141 19 -24 87 -82 151 -130 149 -110 148 -110 77 -78 -143 62 -284 182
-303 257 -17 66 -22 119 -11 113 5 -4 9 -13 9 -21z m-200 -133 c-6 -12 -15
-21 -20 -21 -5 0 -78 -34 -162 -76 -174 -86 -266 -151 -389 -273 -71 -70 -94
-102 -127 -171 -43 -90 -74 -203 -93 -335 -11 -78 -14 -84 -100 -206 -49 -69
-107 -164 -128 -210 -35 -75 -51 -119 -105 -294 l-16 -50 5 70 c9 150 91 355
219 544 64 95 74 115 79 167 10 95 53 249 93 332 29 60 55 95 118 157 91 90
264 211 436 305 63 35 133 73 155 86 43 24 57 15 35 -25z m1840 -133 c248
-156 364 -260 422 -378 44 -90 82 -217 99 -331 10 -71 18 -91 50 -134 147
-196 261 -485 258 -655 0 -32 -2 -30 -15 20 -70 264 -118 366 -275 582 -52 71
-57 83 -62 146 -10 105 -53 257 -99 351 -77 156 -264 315 -514 437 -83 41
-156 74 -163 74 -6 0 -11 1 -11 3 0 1 -4 17 -9 35 l-10 33 117 -62 c64 -34
160 -88 212 -121z m-1075 19 c112 0 195 5 243 15 39 8 72 14 72 13 0 -1 -58
-45 -129 -98 -72 -53 -142 -113 -157 -132 l-27 -36 -61 59 c-34 33 -105 92
-158 131 -54 39 -98 73 -98 75 0 1 33 -4 73 -12 47 -10 130 -15 242 -15z
m1296 -895 c17 -19 29 -43 29 -60 -2 -88 -129 -1140 -140 -1159 -8 -12 -25
-26 -37 -32 -17 -8 -379 -11 -1179 -11 l-1156 0 -28 28 c-34 34 -30 -1 -76
656 -27 397 -33 515 -24 536 26 63 -40 60 1230 69 1464 11 1345 13 1381 -27z
m187 -482 c25 0 53 -10 83 -29 43 -28 164 -128 144 -120 -5 2 -56 28 -112 57
-76 39 -114 52 -145 52 -24 0 -60 5 -80 11 -33 8 -38 14 -38 39 l0 28 55 -19
c30 -10 72 -19 93 -19z m-2834 13 c11 -29 -19 -45 -96 -53 -71 -7 -165 -45
-253 -102 -47 -31 64 68 120 107 40 28 63 36 114 40 35 3 71 10 80 15 23 13
28 12 35 -7z m2497 -853 c22 -13 26 -62 5 -79 -18 -15 -2294 -3 -2313 12 -19
14 -16 54 5 66 24 14 2276 15 2303 1z"/>
<path d="M3305 5126 c-51 -16 -84 -33 -112 -59 -35 -32 -28 -37 29 -21 86 26
150 33 207 22 43 -8 57 -7 68 4 50 50 -85 88 -192 54z"/>
<path d="M4072 5125 c-26 -11 -33 -20 -30 -37 3 -20 8 -23 38 -21 110 8 160 4
224 -16 38 -12 71 -19 74 -16 11 10 -33 46 -87 72 -69 32 -170 41 -219 18z"/>
<path d="M3353 4993 c-33 -13 -6 -23 60 -23 65 1 70 2 53 15 -19 14 -87 19
-113 8z"/>
<path d="M4084 4985 c-17 -13 -12 -14 54 -15 39 0 72 4 72 9 0 24 -96 29 -126
6z"/>
<path d="M3330 4941 c-58 -18 -122 -63 -108 -76 3 -3 21 2 41 10 60 25 72 21
72 -25 1 -27 -4 -40 -15 -43 -33 -8 75 -28 117 -22 39 6 71 25 41 25 -10 0
-12 11 -10 40 2 22 6 40 8 40 3 0 21 -7 41 -15 47 -20 55 -11 18 20 -52 43
-145 64 -205 46z m50 -55 c0 -3 -4 -8 -10 -11 -5 -3 -10 -1 -10 4 0 6 5 11 10
11 6 0 10 -2 10 -4z m70 -36 c0 -13 -7 -20 -20 -20 -13 0 -20 7 -20 20 0 13 7
20 20 20 13 0 20 -7 20 -20z"/>
<path d="M4089 4937 c-43 -16 -99 -54 -99 -68 0 -12 1 -12 43 6 47 19 50 19
42 -5 -3 -10 -1 -28 4 -39 9 -17 7 -20 -12 -23 -17 -3 -12 -7 22 -17 43 -12
110 -8 141 10 13 7 13 8 -1 9 -12 0 -16 10 -15 44 l1 43 54 -18 c80 -28 84 -9
8 36 -53 30 -138 40 -188 22z m31 -57 c0 -5 -2 -10 -4 -10 -3 0 -8 5 -11 10
-3 6 -1 10 4 10 6 0 11 -4 11 -10z m80 -31 c0 -12 -7 -19 -20 -19 -22 0 -29
35 -7 43 18 6 27 -2 27 -24z"/>
<path d="M3211 4322 c-21 -39 -7 -112 20 -112 8 0 9 20 5 62 -8 72 -11 77 -25
50z"/>
<path d="M4317 4334 c-10 -10 -9 -124 1 -124 12 0 32 46 32 74 0 26 -22 60
-33 50z"/>
<path d="M2885 4985 c-51 -22 -69 -49 -60 -92 4 -21 9 -51 11 -68 3 -24 1 -23
-10 10 l-14 40 -1 -62 c-1 -39 4 -66 12 -75 7 -7 15 -17 16 -23 6 -21 10 -16
6 6 -3 14 -1 38 4 54 4 17 4 46 0 65 -19 97 -19 96 6 96 13 0 21 -4 19 -8 -3
-4 0 -8 6 -8 6 0 10 8 8 18 -2 9 -10 16 -16 15 -7 -2 -12 2 -12 7 0 6 10 10
23 10 13 0 28 5 34 11 8 8 13 8 17 0 4 -6 12 -11 18 -11 7 0 6 6 -2 15 -15 18
-25 18 -65 0z m-48 -217 c-3 -8 -6 -5 -6 6 -1 11 2 17 5 13 3 -3 4 -12 1 -19z"/>
<path d="M2854 4900 c4 -19 10 -59 13 -88 4 -34 9 -49 14 -40 5 7 6 31 3 53
-4 22 -6 50 -5 61 0 12 -7 28 -16 35 -15 13 -16 11 -9 -21z"/>
<path d="M2896 4899 c-9 -47 -7 -59 8 -59 9 0 15 15 18 45 4 52 -16 63 -26 14z"/>
<path d="M2930 4640 c0 -22 5 -40 10 -40 6 0 10 18 10 40 0 22 -4 40 -10 40
-5 0 -10 -18 -10 -40z"/>
<path d="M4589 4974 c-13 -37 -7 -39 13 -3 9 16 13 29 7 29 -5 0 -14 -12 -20
-26z"/>
<path d="M4660 4980 c0 -5 5 -10 11 -10 5 0 7 5 4 10 -3 6 -8 10 -11 10 -2 0
-4 -4 -4 -10z"/>
<path d="M4615 4959 c-4 -6 -8 -42 -9 -80 -1 -39 2 -60 6 -49 8 22 19 27 16 8
-2 -7 3 -12 10 -10 8 1 13 -19 14 -70 l2 -73 3 65 c2 35 0 73 -6 85 -19 41
-21 55 -6 55 8 0 15 -8 15 -18 0 -19 18 -42 32 -42 4 0 8 9 8 21 0 11 -5 17
-10 14 -6 -4 -7 -11 -4 -17 5 -7 2 -8 -5 -3 -16 9 -7 65 12 78 7 5 2 6 -13 2
-20 -6 -23 -5 -12 6 17 18 15 26 -8 32 -11 3 -20 1 -20 -4 0 -5 5 -9 12 -9 6
0 8 -3 4 -7 -4 -5 -14 0 -21 10 -9 13 -15 15 -20 6z m21 -23 c8 -8 14 -19 14
-25 0 -6 -9 -2 -20 9 -11 11 -20 22 -20 25 0 9 11 5 26 -9z"/>
<path d="M4690 4961 c0 -7 7 -19 15 -27 19 -20 19 -5 0 20 -9 11 -15 14 -15 7z"/>
<path d="M4722 4835 c0 -16 2 -22 5 -12 2 9 2 23 0 30 -3 6 -5 -1 -5 -18z"/>
<path d="M4620 4758 c0 -62 5 -60 13 5 4 28 3 47 -3 47 -6 0 -10 -23 -10 -52z"/>
<path d="M4631 4666 c8 -17 15 -23 18 -15 2 8 9 18 15 22 7 6 5 7 -5 4 -9 -3
-22 0 -29 6 -8 9 -8 4 1 -17z"/>
<path d="M3499 4309 c-29 -17 51 -121 129 -166 36 -21 62 -28 128 -31 71 -4
89 -1 136 20 67 31 116 73 145 126 19 33 21 42 9 51 -10 8 -23 7 -52 -6 -55
-25 -377 -26 -441 -2 -23 9 -47 13 -54 8z m271 -78 c52 0 119 4 148 8 l52 7
-22 -24 c-53 -56 -156 -84 -233 -63 -44 11 -135 65 -135 79 0 5 21 5 48 1 26
-4 90 -8 142 -8z"/>
<path d="M3630 4075 c16 -43 40 -72 79 -99 21 -15 44 -39 50 -54 12 -25 13
-26 23 -7 6 11 37 45 69 75 33 31 61 67 65 83 l6 27 -63 -30 c-80 -37 -103
-37 -174 0 -31 17 -59 30 -61 30 -2 0 1 -11 6 -25z"/>
<path d="M5699 5913 c-30 -16 -72 -26 -118 -30 -39 -3 -75 -11 -80 -17 -6 -7
1 -64 19 -151 46 -232 45 -212 11 -218 -17 -4 -38 -18 -47 -33 -16 -24 -16
-29 -3 -53 20 -36 58 -47 108 -32 28 8 41 17 41 30 0 10 -14 85 -30 166 -31
155 -31 164 12 165 10 0 45 9 79 21 33 12 62 19 63 18 2 -2 11 -44 20 -94 9
-49 19 -97 22 -106 3 -11 -3 -19 -20 -23 -59 -15 -74 -70 -30 -105 15 -12 40
-21 55 -21 38 0 71 33 64 63 -3 12 -23 113 -44 224 -22 112 -42 207 -46 213
-9 14 -23 11 -76 -17z m41 -58 c0 -8 -13 -21 -30 -30 -38 -19 -150 -46 -150
-35 0 5 -2 15 -6 23 -4 11 8 16 49 20 29 4 71 13 93 21 21 8 40 15 42 15 1 1
2 -6 2 -14z"/>
<path d="M5395 5095 c-30 -17 -61 -25 -84 -24 -45 3 -61 -6 -61 -33 0 -11 23
-95 51 -187 27 -91 52 -174 55 -183 4 -14 -3 -19 -37 -24 -79 -13 -111 -73
-69 -127 40 -51 137 -41 176 18 17 25 16 31 -45 232 -64 213 -65 222 -19 223
9 0 38 17 65 39 27 21 59 42 71 45 25 8 27 17 10 34 -19 19 -61 14 -113 -13z"/>
</g>
</svg>
